<svg xmlns="http://www.w3.org/2000/svg" width="19.025" height="20" viewBox="0 0 19.025 20">
  <path id="Shape" d="M17.563,20a1.332,1.332,0,0,1-1.028-.456l-3.922-4.11a7.7,7.7,0,0,1-7.689.824,8.087,8.087,0,0,1-2.573-1.8,8.537,8.537,0,0,1-1.715-2.7,8.835,8.835,0,0,1,0-6.575A8.552,8.552,0,0,1,2.35,2.47,8.082,8.082,0,0,1,4.923.667a7.666,7.666,0,0,1,6.255,0,8.067,8.067,0,0,1,2.572,1.8,8.532,8.532,0,0,1,1.715,2.7A8.715,8.715,0,0,1,16.1,8.462a8.566,8.566,0,0,1-1.419,4.8L18.6,17.38a1.58,1.58,0,0,1-.012,2.164A1.379,1.379,0,0,1,17.563,20ZM8.05,3.077a4.836,4.836,0,0,0-3.619,1.58,5.347,5.347,0,0,0-1.5,3.8,5.347,5.347,0,0,0,1.5,3.8,4.842,4.842,0,0,0,3.619,1.58,4.838,4.838,0,0,0,3.619-1.58,5.347,5.347,0,0,0,1.5-3.8,5.344,5.344,0,0,0-1.5-3.8A4.835,4.835,0,0,0,8.05,3.077Z" transform="translate(0)" fill="#005794"/>
</svg>
